<?xml version="1.0" standalone="no"?>
<!DOCTYPE svg PUBLIC "-//W3C//DTD SVG 20010904//EN"
 "http://www.w3.org/TR/2001/REC-SVG-20010904/DTD/svg10.dtd">
<svg version="1.0" xmlns="http://www.w3.org/2000/svg"
 width="409.000000pt" height="409.000000pt" viewBox="0 0 409.000000 409.000000"
 preserveAspectRatio="xMidYMid meet">
<metadata>
Created by potrace 1.11, written by Peter Selinger 2001-2013
</metadata>
<g transform="translate(0.000000,409.000000) scale(0.100000,-0.100000)"
fill="#000000" stroke="none">
<path d="M3005 4014 c-93 -41 -325 -142 -515 -224 -753 -324 -1027 -443 -1065
-460 -22 -10 -96 -41 -165 -70 -69 -29 -147 -63 -175 -75 -27 -13 -84 -37
-125 -55 -99 -43 -115 -56 -145 -114 l-25 -50 0 -424 c0 -371 2 -428 16 -458
22 -46 50 -66 142 -104 42 -18 104 -45 137 -60 33 -15 248 -107 477 -206 230
-98 414 -181 410 -185 -4 -3 -146 -65 -317 -138 -170 -73 -323 -139 -340 -146
-16 -7 -115 -50 -220 -95 -104 -45 -205 -91 -223 -103 -18 -12 -44 -44 -57
-71 l-25 -50 0 -434 0 -434 29 -29 c17 -17 40 -29 55 -29 19 0 617 253 861
365 17 7 73 32 125 54 52 23 104 46 115 51 11 5 40 18 65 28 223 97 273 118
328 143 34 16 65 29 67 29 2 0 28 11 57 24 29 13 202 89 384 169 182 79 341
153 353 163 12 11 31 36 42 57 19 36 19 58 17 481 -3 429 -4 446 -23 472 -29
38 -55 50 -545 259 -239 102 -453 194 -475 204 -22 10 -64 29 -93 42 l-53 25
228 99 c125 54 260 113 298 130 39 18 183 81 320 140 138 59 264 118 281 131
64 47 64 46 64 527 l0 436 -22 26 c-42 47 -75 42 -263 -41z"/>
</g>
</svg>
