<?xml version="1.0" encoding="utf-8"?>
<!-- Generator: Adobe Illustrator 18.1.0, SVG Export Plug-In . SVG Version: 6.00 Build 0)  -->
<!DOCTYPE svg PUBLIC "-//W3C//DTD SVG 1.1//EN" "http://www.w3.org/Graphics/SVG/1.1/DTD/svg11.dtd">
<svg version="1.1" id="Layer_1" xmlns="http://www.w3.org/2000/svg" xmlns:xlink="http://www.w3.org/1999/xlink" x="0px" y="0px"
	 viewBox="0 0 1635 1635" enable-background="new 0 0 1635 1635" xml:space="preserve">
<path fill-rule="evenodd" clip-rule="evenodd" fill="#292E75" d="M817.5,0C366,0,0,366,0,817.5S366,1635,817.5,1635
	S1635,1269,1635,817.5S1269,0,817.5,0z M1311.7,1040.7V945h-176.3v438H897.3V945H758v438H519.9V945H353.1v95.8L88.3,891.9
	l264.8-163.7v110.6h166.8V638.9c0,0,10.7-82.4-35.4-116.2c-7.2-5.3-25.3-23.7-58.5-30.8c-31.9-6.8-75-1.6-113.2-10.5
	c-87.5-20.4-136.3-99.3-120.2-125.3c20.7-33.5,104.2,14.9,104.2,14.9s36.4,21.3,86.6,36.9c42.2,13.1,96.2,20.2,125.2,27
	c58.7,13.8,134.3,17.5,188.2,48.8C755.9,518,758,594.3,758,594.3v244.6h139.3V594.3c0,0,2.1-76.3,61.2-110.5
	c54-31.3,129.5-34.9,188.2-48.8c29.1-6.8,83.1-13.9,125.2-27c50.1-15.6,86.6-36.9,86.6-36.9s83.5-48.4,104.2-14.9
	c16,26-32.8,104.9-120.2,125.3c-38.2,8.9-81.3,3.7-113.2,10.5c-33.2,7.1-51.3,25.5-58.5,30.8c-46.1,33.8-35.4,116.2-35.4,116.2
	v199.9h176.3V728.2l264.8,163.7L1311.7,1040.7z"/>
</svg>
